<svg width="328" height="328" xmlns="http://www.w3.org/2000/svg" xmlns:xlink="http://www.w3.org/1999/xlink" xml:space="preserve" overflow="hidden"><defs><filter id="fx0" x="-10%" y="-10%" width="120%" height="120%" filterUnits="userSpaceOnUse" primitiveUnits="userSpaceOnUse"><feComponentTransfer color-interpolation-filters="sRGB"><feFuncR type="discrete" tableValues="0 0"/><feFuncG type="discrete" tableValues="0 0"/><feFuncB type="discrete" tableValues="0 0"/><feFuncA type="linear" slope="0.4" intercept="0"/></feComponentTransfer><feGaussianBlur stdDeviation="6.11111 6.11111"/></filter><clipPath id="clip1"><rect x="144" y="447" width="328" height="328"/></clipPath><clipPath id="clip2"><path d="M308 454.5C229.299 454.5 165.5 518.299 165.5 597 165.5 675.701 229.299 739.5 308 739.5 386.701 739.5 450.5 675.701 450.5 597 450.5 518.299 386.701 454.5 308 454.5ZM144 447 472 447 472 775 144 775Z" fill-rule="evenodd" clip-rule="evenodd"/></clipPath></defs><g clip-path="url(#clip1)" transform="translate(-144 -447)"><g clip-path="url(#clip2)"><g filter="url(#fx0)" transform="translate(143 446)"><g><path d="M22.4998 164.75C22.4998 86.0494 86.2993 22.2499 165 22.2499 243.701 22.2499 307.5 86.0494 307.5 164.75 307.5 243.45 243.701 307.25 165 307.25 86.2993 307.25 22.4998 243.45 22.4998 164.75Z" stroke="#FFFFFF" stroke-width="5" stroke-miterlimit="8" fill="#FFFFFF" fill-rule="evenodd"/></g></g></g><path d="M165.5 597C165.5 518.299 229.299 454.5 308 454.5 386.701 454.5 450.5 518.299 450.5 597 450.5 675.701 386.701 739.5 308 739.5 229.299 739.5 165.5 675.701 165.5 597Z" stroke="#FFFFFF" stroke-width="4.58333" stroke-miterlimit="8" fill="#FFFFFF" fill-rule="evenodd"/><path d="M229.5 535.5C229.5 526.663 236.887 519.5 246 519.5 255.113 519.5 262.5 526.663 262.5 535.5 262.5 544.336 255.113 551.5 246 551.5 236.887 551.5 229.5 544.336 229.5 535.5Z" stroke="#9966FF" stroke-width="4.58333" stroke-miterlimit="8" fill="#9966FF" fill-rule="evenodd"/><path d="M291.5 535.5C291.5 526.663 298.887 519.5 308 519.5 317.113 519.5 324.5 526.663 324.5 535.5 324.5 544.336 317.113 551.5 308 551.5 298.887 551.5 291.5 544.336 291.5 535.5Z" stroke="#FF5050" stroke-width="4.58333" stroke-miterlimit="8" fill="#FF5050" fill-rule="evenodd"/><path d="M353.5 535.5C353.5 526.663 360.887 519.5 370 519.5 379.113 519.5 386.5 526.663 386.5 535.5 386.5 544.336 379.113 551.5 370 551.5 360.887 551.5 353.5 544.336 353.5 535.5Z" stroke="#339933" stroke-width="4.58333" stroke-miterlimit="8" fill="#009900" fill-rule="evenodd"/><path d="M229.5 596.5C229.5 587.664 236.887 580.5 246 580.5 255.113 580.5 262.5 587.664 262.5 596.5 262.5 605.337 255.113 612.5 246 612.5 236.887 612.5 229.5 605.337 229.5 596.5Z" stroke="#3366FF" stroke-width="4.58333" stroke-miterlimit="8" fill="#3366FF" fill-rule="evenodd"/><path d="M291.5 596.5C291.5 587.664 298.887 580.5 308 580.5 317.113 580.5 324.5 587.664 324.5 596.5 324.5 605.337 317.113 612.5 308 612.5 298.887 612.5 291.5 605.337 291.5 596.5Z" stroke="#FF9900" stroke-width="4.58333" stroke-miterlimit="8" fill="#FF9900" fill-rule="evenodd"/><path d="M353.5 596.5C353.5 587.664 360.887 580.5 370 580.5 379.113 580.5 386.5 587.664 386.5 596.5 386.5 605.337 379.113 612.5 370 612.5 360.887 612.5 353.5 605.337 353.5 596.5Z" stroke="#FF5050" stroke-width="4.58333" stroke-miterlimit="8" fill="#FF5050" fill-rule="evenodd"/><path d="M291.5 658.5C291.5 649.663 298.887 642.5 308 642.5 317.113 642.5 324.5 649.663 324.5 658.5 324.5 667.336 317.113 674.5 308 674.5 298.887 674.5 291.5 667.336 291.5 658.5Z" stroke="#9966FF" stroke-width="4.58333" stroke-miterlimit="8" fill="#9966FF" fill-rule="evenodd"/><path d="M229.5 658.5C229.5 649.663 236.887 642.5 246 642.5 255.113 642.5 262.5 649.663 262.5 658.5 262.5 667.336 255.113 674.5 246 674.5 236.887 674.5 229.5 667.336 229.5 658.5Z" stroke="#339933" stroke-width="4.58333" stroke-miterlimit="8" fill="#009900" fill-rule="evenodd"/><path d="M353.5 658.5C353.5 649.663 360.887 642.5 370 642.5 379.113 642.5 386.5 649.663 386.5 658.5 386.5 667.336 379.113 674.5 370 674.5 360.887 674.5 353.5 667.336 353.5 658.5Z" stroke="#3366FF" stroke-width="4.58333" stroke-miterlimit="8" fill="#3366FF" fill-rule="evenodd"/></g></svg>