<svg xmlns="http://www.w3.org/2000/svg" xmlns:xlink="http://www.w3.org/1999/xlink" width="385" height="336" viewBox="0 0 385 336">
  <defs>
    <filter id="fx0" x="-10%" y="-10%" width="120%" height="120%" filterUnits="userSpaceOnUse" primitiveUnits="userSpaceOnUse">
      <feComponentTransfer color-interpolation-filters="sRGB">
        <feFuncR type="discrete" tableValues="0 0"/>
        <feFuncG type="discrete" tableValues="0 0"/>
        <feFuncB type="discrete" tableValues="0 0"/>
        <feFuncA type="linear" slope="0.4" intercept="0"/>
      </feComponentTransfer>
      <feGaussianBlur stdDeviation="6.11111 6.11111"/>
    </filter>
    <clipPath id="clip1">
      <rect x="0" y="0" width="385" height="336"/>
    </clipPath>
    <clipPath id="clip2">
      <path d="M193 7.5C114.3 7.5 50.5 71.299 50.5 150 50.5 228.7 114.3 292.5 193 292.5 271.7 292.5 335.5 228.7 335.5 150 335.5 71.299 271.7 7.5 193 7.5ZM0 0 385 0 385 336 0 336Z" fill-rule="evenodd" clip-rule="evenodd"/>
    </clipPath>
  </defs>
  <g clip-path="url(#clip1)">
    <!-- Orange and white triangles -->
    <path d="M43.5 326.5L212 10.5L380.5 326.5Z" stroke="#C55A11" stroke-width="4.58333" stroke-miterlimit="8" fill="#FFFFFF" fill-rule="evenodd"/>
    <path d="M4.5 333.5L173.5 11.5L342.5 333.5Z" stroke="#C55A11" stroke-width="4.58333" stroke-miterlimit="8" fill="#C55A11" fill-rule="evenodd"/>
    <!-- White circle with blur effect -->
    <g clip-path="url(#clip2)">
      <g filter="url(#fx0)" transform="translate(28 0)">
        <path d="M22.5 164.75C22.5 86.0493 86.2997 22.2499 165 22.2499 243.701 22.2499 307.5 86.0493 307.5 164.75 307.5 243.45 243.701 307.25 165 307.25 86.2997 307.25 22.5 243.45 22.5 164.75Z" stroke="#FFFFFF" stroke-width="5" stroke-miterlimit="8" fill="#FFFFFF" fill-rule="evenodd"/>
      </g>
    </g>
    <!-- Outer white circle -->
    <path d="M50.5 150C50.5 71.299 114.3 7.5 193 7.5 271.7 7.5 335.5 71.299 335.5 150 335.5 228.7 271.7 292.5 193 292.5 114.3 292.5 50.5 228.7 50.5 150Z" stroke="#FFFFFF" stroke-width="4.58333" stroke-miterlimit="8" fill="#FFFFFF" fill-rule="evenodd"/>
    
    <!-- Database Icon with #C55A11 borders (centered and scaled) -->
    <g transform="translate(40, -7) scale(1.2)">
      <g fill="white" stroke="#C55A11" stroke-width="15" stroke-linejoin="round">
        <!-- Main cylinder -->
        <path d="M60,70 v120 a68,25 0 0 0 136,0 v-120 a68,25 0 0 0 -136,0 z"/>
        <!-- Top ellipse -->
        <ellipse cx="128" cy="70" rx="68" ry="25"/>
        <!-- Horizontal stripes -->
        <path d="M60,106 a68,25 0 0 0 136,0"/>
        <path d="M60,142 a68,25 0 0 0 136,0"/>
        <path d="M60,178 a68,25 0 0 0 136,0"/>
        <!-- Bottom section with lighter orange -->
        <path d="M60,190 v15 a68,25 0 0 0 136,0 v-15" fill="#C55A11" fill-opacity="0.3"/>
      </g>
    </g>
  </g>
</svg>