<svg width="385" height="337" xmlns="http://www.w3.org/2000/svg" xmlns:xlink="http://www.w3.org/1999/xlink" xml:space="preserve" overflow="hidden"><defs><filter id="fx0" x="-10%" y="-10%" width="120%" height="120%" filterUnits="userSpaceOnUse" primitiveUnits="userSpaceOnUse"><feComponentTransfer color-interpolation-filters="sRGB"><feFuncR type="discrete" tableValues="0 0"/><feFuncG type="discrete" tableValues="0 0"/><feFuncB type="discrete" tableValues="0 0"/><feFuncA type="linear" slope="0.4" intercept="0"/></feComponentTransfer><feGaussianBlur stdDeviation="6.11111 6.11111"/></filter><clipPath id="clip1"><rect x="2819" y="1054" width="385" height="337"/></clipPath><clipPath id="clip2"><path d="M3012 1061.5C2933.3 1061.5 2869.5 1125.52 2869.5 1204.5 2869.5 1283.48 2933.3 1347.5 3012 1347.5 3090.7 1347.5 3154.5 1283.48 3154.5 1204.5 3154.5 1125.52 3090.7 1061.5 3012 1061.5ZM2819 1054 3204 1054 3204 1391 2819 1391Z" fill-rule="evenodd" clip-rule="evenodd"/></clipPath></defs><g clip-path="url(#clip1)" transform="translate(-2819 -1054)"><path d="M2862.5 1380.5 3031 1065.5 3199.5 1380.5Z" stroke="#9966FF" stroke-width="4.58333" stroke-miterlimit="8" fill="#FFFFFF" fill-rule="evenodd"/><path d="M2823.5 1388.5 2992.5 1065.5 3161.5 1388.5Z" stroke="#9966FF" stroke-width="4.58333" stroke-miterlimit="8" fill="#9966FF" fill-rule="evenodd"/><g clip-path="url(#clip2)"><g filter="url(#fx0)" transform="translate(2847 1053)"><g><path d="M22.5002 165.25C22.5002 86.2733 86.2997 22.25 165 22.25 243.701 22.25 307.5 86.2733 307.5 165.25 307.5 244.227 243.701 308.25 165 308.25 86.2997 308.25 22.5002 244.227 22.5002 165.25Z" stroke="#FFFFFF" stroke-width="5" stroke-miterlimit="8" fill="#FFFFFF" fill-rule="evenodd"/></g></g></g><path d="M2869.5 1204.5C2869.5 1125.52 2933.3 1061.5 3012 1061.5 3090.7 1061.5 3154.5 1125.52 3154.5 1204.5 3154.5 1283.48 3090.7 1347.5 3012 1347.5 2933.3 1347.5 2869.5 1283.48 2869.5 1204.5Z" stroke="#FFFFFF" stroke-width="4.58333" stroke-miterlimit="8" fill="#FFFFFF" fill-rule="evenodd"/><g><g><g><path d="M137.5-107.422 107.422-137.5 137.5-167.578 167.578-137.5 137.5-107.422ZM113.151-191.641 89.375-215.417 137.5-263.542 185.625-215.417 161.849-191.641 137.5-215.99 113.151-191.641ZM59.5833-89.375 11.4583-137.5 59.5833-185.625 83.3594-161.849 59.0104-137.5 83.3594-113.151 59.5833-89.375ZM215.417-89.375 191.641-113.151 215.99-137.5 191.641-161.849 215.417-185.625 263.542-137.5 215.417-89.375ZM137.5-11.4583 89.375-59.5833 113.151-83.3594 137.5-59.0104 161.849-83.3594 185.625-59.5833 137.5-11.4583Z" fill="#9966FF" transform="matrix(1 0 0 1.00364 2874 1342)"/></g></g></g></g></svg>