<svg width="385" height="336" xmlns="http://www.w3.org/2000/svg" xmlns:xlink="http://www.w3.org/1999/xlink" xml:space="preserve" overflow="hidden"><defs><filter id="fx0" x="-10%" y="-10%" width="120%" height="120%" filterUnits="userSpaceOnUse" primitiveUnits="userSpaceOnUse"><feComponentTransfer color-interpolation-filters="sRGB"><feFuncR type="discrete" tableValues="0 0"/><feFuncG type="discrete" tableValues="0 0"/><feFuncB type="discrete" tableValues="0 0"/><feFuncA type="linear" slope="0.4" intercept="0"/></feComponentTransfer><feGaussianBlur stdDeviation="6.11111 6.11111"/></filter><clipPath id="clip1"><rect x="2819" y="568" width="385" height="336"/></clipPath><clipPath id="clip2"><path d="M3012 575.5C2933.3 575.5 2869.5 639.299 2869.5 718 2869.5 796.701 2933.3 860.5 3012 860.5 3090.7 860.5 3154.5 796.701 3154.5 718 3154.5 639.299 3090.7 575.5 3012 575.5ZM2819 568 3204 568 3204 904 2819 904Z" fill-rule="evenodd" clip-rule="evenodd"/></clipPath></defs><g clip-path="url(#clip1)" transform="translate(-2819 -568)"><path d="M2862.5 894.5 3031 578.5 3199.5 894.5Z" stroke="#D83B01" stroke-width="4.58333" stroke-miterlimit="8" fill="#FFFFFF" fill-rule="evenodd"/><path d="M2823.5 901.5 2992.5 579.5 3161.5 901.5Z" stroke="#D83B01" stroke-width="4.58333" stroke-miterlimit="8" fill="#D83B01" fill-rule="evenodd"/><g clip-path="url(#clip2)"><g filter="url(#fx0)" transform="translate(2847 567)"><g><path d="M22.5002 164.75C22.5002 86.0494 86.2997 22.2499 165 22.2499 243.701 22.2499 307.5 86.0494 307.5 164.75 307.5 243.45 243.701 307.25 165 307.25 86.2997 307.25 22.5002 243.45 22.5002 164.75Z" stroke="#FFFFFF" stroke-width="5" stroke-miterlimit="8" fill="#FFFFFF" fill-rule="evenodd"/></g></g></g><path d="M2869.5 718C2869.5 639.299 2933.3 575.5 3012 575.5 3090.7 575.5 3154.5 639.299 3154.5 718 3154.5 796.701 3090.7 860.5 3012 860.5 2933.3 860.5 2869.5 796.701 2869.5 718Z" stroke="#FFFFFF" stroke-width="4.58333" stroke-miterlimit="8" fill="#FFFFFF" fill-rule="evenodd"/><g><g><g><path d="M3112.05 645.647 3112.05 774.947C3112.05 778.892 3108.82 782.12 3104.87 782.12L3006.66 782.12 2951.12 823.785C2949.81 824.741 2948.31 825.22 2946.82 825.22 2945.68 825.22 2944.61 824.981 2943.59 824.502 2941.14 823.307 2939.65 820.796 2939.65 818.046L2939.65 782.12 2918.07 782.12C2914.06 782.12 2910.89 778.892 2910.89 774.947L2910.89 674.4C2910.89 670.455 2914.06 667.227 2918.07 667.227 2922.07 667.227 2925.24 670.455 2925.24 674.4L2925.24 767.773 2946.82 767.773C2950.77 767.773 2953.99 771.001 2953.99 774.947L2953.99 803.7 2999.96 769.208C2999.96 769.208 3000.38 768.969 3000.68 768.849 3001.1 768.55 3001.52 768.371 3002 768.192 3002.47 768.072 3002.95 767.953 3003.43 767.893 3003.73 767.893 3003.91 767.773 3004.27 767.773L3097.64 767.773 3097.64 652.82 2918.13 652.82C2914.12 652.82 2910.95 649.592 2910.95 645.647 2910.95 641.702 2914.12 638.474 2918.13 638.474L3003.31 638.474 3003.31 620.54C3003.31 614.563 3008.15 609.78 3014.07 609.78 3019.99 609.78 3024.83 614.622 3024.83 620.54L3024.83 638.474 3104.87 638.474C3108.82 638.474 3112.05 641.702 3112.05 645.647Z" fill="#D83B01"/><path d="M3068.95 695.92C3068.95 703.844 3062.52 710.267 3054.6 710.267 3046.68 710.267 3040.25 703.844 3040.25 695.92 3040.25 687.997 3046.68 681.574 3054.6 681.574 3062.52 681.574 3068.95 687.997 3068.95 695.92Z" fill="#D83B01"/><path d="M2982.75 695.92C2982.75 703.844 2976.32 710.267 2968.4 710.267 2960.48 710.267 2954.05 703.844 2954.05 695.92 2954.05 687.997 2960.48 681.574 2968.4 681.574 2976.32 681.574 2982.75 687.997 2982.75 695.92Z" fill="#D83B01"/><path d="M3011.5 743.145C3001.52 743.145 2993.57 736.689 2993.57 728.798 2993.57 728.499 2993.57 728.2 2993.63 728.021 2999.19 730.173 3005.1 731.309 3011.5 731.309 3017.9 731.309 3023.75 730.173 3029.31 727.961 3029.43 728.26 3029.43 728.559 3029.43 728.798 3029.43 736.689 3021.3 743.145 3011.5 743.145Z" fill="#D83B01"/></g></g></g></g></svg>