<svg width="385" height="337" xmlns="http://www.w3.org/2000/svg" xmlns:xlink="http://www.w3.org/1999/xlink" xml:space="preserve" overflow="hidden"><defs><filter id="fx0" x="-10%" y="-10%" width="120%" height="120%" filterUnits="userSpaceOnUse" primitiveUnits="userSpaceOnUse"><feComponentTransfer color-interpolation-filters="sRGB"><feFuncR type="discrete" tableValues="0 0"/><feFuncG type="discrete" tableValues="0 0"/><feFuncB type="discrete" tableValues="0 0"/><feFuncA type="linear" slope="0.4" intercept="0"/></feComponentTransfer><feGaussianBlur stdDeviation="6.11111 6.11111"/></filter><clipPath id="clip1"><rect x="2819" y="89" width="385" height="337"/></clipPath><clipPath id="clip2"><path d="M3012 96.5001C2933.3 96.5001 2869.5 160.523 2869.5 239.5 2869.5 318.477 2933.3 382.5 3012 382.5 3090.7 382.5 3154.5 318.477 3154.5 239.5 3154.5 160.523 3090.7 96.5001 3012 96.5001ZM2819 89 3204 89 3204 426 2819 426Z" fill-rule="evenodd" clip-rule="evenodd"/></clipPath></defs><g clip-path="url(#clip1)" transform="translate(-2819 -89)"><path d="M2862.5 415.5 3031 100.5 3199.5 415.5Z" stroke="#FF9900" stroke-width="4.58333" stroke-miterlimit="8" fill="#FFFFFF" fill-rule="evenodd"/><path d="M2823.5 423.5 2992.5 100.5 3161.5 423.5Z" stroke="#FFC000" stroke-width="4.58333" stroke-miterlimit="8" fill="#FF9900" fill-rule="evenodd"/><g clip-path="url(#clip2)"><g filter="url(#fx0)" transform="translate(2847 88)"><g><path d="M22.5002 165.25C22.5002 86.2734 86.2997 22.2501 165 22.2501 243.701 22.2501 307.5 86.2734 307.5 165.25 307.5 244.227 243.701 308.25 165 308.25 86.2997 308.25 22.5002 244.227 22.5002 165.25Z" stroke="#FFFFFF" stroke-width="5" stroke-miterlimit="8" fill="#FFFFFF" fill-rule="evenodd"/></g></g></g><path d="M2869.5 239.5C2869.5 160.523 2933.3 96.5001 3012 96.5001 3090.7 96.5001 3154.5 160.523 3154.5 239.5 3154.5 318.477 3090.7 382.5 3012 382.5 2933.3 382.5 2869.5 318.477 2869.5 239.5Z" stroke="#FFFFFF" stroke-width="4.58333" stroke-miterlimit="8" fill="#FFFFFF" fill-rule="evenodd"/><g><g><g><path d="M2920.66 154.469C2915.05 154.502 2910.53 159.074 2910.56 164.681 2910.56 164.681 2910.56 164.681 2910.56 164.681L2910.56 287.41 2910.56 287.41C2910.53 293.017 2915.05 297.589 2920.66 297.622 2920.66 297.622 2920.66 297.622 2920.66 297.622L2950.94 297.622 2950.94 338.531 2991.31 297.622 3102.34 297.622C3107.95 297.589 3112.47 293.017 3112.44 287.41 3112.44 287.41 3112.44 287.41 3112.44 287.41L3112.44 164.681 3112.44 164.681C3112.47 159.074 3107.95 154.502 3102.34 154.469 3102.34 154.469 3102.34 154.469 3102.34 154.469ZM3044.16 225.719C3044.16 217.521 3050.8 210.875 3059 210.875 3067.2 210.875 3073.84 217.521 3073.84 225.719 3073.84 233.917 3067.2 240.563 3059 240.563 3050.8 240.563 3044.16 233.917 3044.16 225.719ZM2996.66 225.719C2996.66 217.521 3003.3 210.875 3011.5 210.875 3019.7 210.875 3026.34 217.521 3026.34 225.719 3026.34 233.917 3019.7 240.563 3011.5 240.563 3003.3 240.563 2996.66 233.917 2996.66 225.719ZM2949.16 225.719C2949.16 217.521 2955.8 210.875 2964 210.875 2972.2 210.875 2978.84 217.521 2978.84 225.719 2978.84 233.917 2972.2 240.563 2964 240.563 2955.8 240.563 2949.16 233.917 2949.16 225.719Z" fill="#FF9900"/></g></g></g></g></svg>